# xmcd
# 
# Track frame offsets:
#     187
#     20005
#     40155
#     65407
#     80457
#     102385
#     121610
#     137640
#     162002
#     185370
# 
# Disc length: 2793
# 
# Revision: 4
# Processed by: cddbd v1.5.2PL0 Copyright (c) Steve Scherf et al.
# Submitted via: BonkEnc v1.0.8
# 
DISCID=790ae70a
DTITLE=神保彰 - Palette
DYEAR=1989
DGENRE=Fusion
TTITLE0=Burning Sand
TTITLE1=Driftin`
TTITLE2=Olivia
TTITLE3=Carneval de Rio Grande
TTITLE4=Caramel Island
TTITLE5=Twilight Walk
TTITLE6=Our Sweet Melody
TTITLE7=Lonely Star
TTITLE8=Captain Banana
TTITLE9=Cobalt Cruise
EXTD=
EXTT0=
EXTT1=
EXTT2=(lyrics:Jeff Day]\n
EXTT3=
EXTT4=
EXTT5=
EXTT6=
EXTT7=
EXTT8=
EXTT9=
PLAYORDER=
